<svg xmlns="http://www.w3.org/2000/svg" width="640" height="800" viewBox="0 0 640 800"><defs><linearGradient id="bg" x2="1" y2="1"><stop stop-color="#ede8df"/><stop offset="1" stop-color="#c9c0b0"/></linearGradient><linearGradient id="paper"><stop stop-color="#fffaf1"/><stop offset="1" stop-color="#c6bcaa"/></linearGradient><linearGradient id="metal"><stop stop-color="#e1e3e0"/><stop offset=".5" stop-color="#7a8584"/><stop offset="1" stop-color="#c1c8c4"/></linearGradient><filter id="shadow"><feGaussianBlur stdDeviation="13"/></filter></defs><rect width="640" height="800" fill="url(#bg)"/><path d="M0 600 640 320V800H0Z" fill="#fff" opacity=".18"/><g stroke="#fff" opacity=".14"><path d="M0 160H640M0 320H640M0 480H640M0 640H640M160 0V800M320 0V800M480 0V800"/></g><ellipse cx="330" cy="639" rx="228" ry="40" fill="#4c453b" opacity=".22" filter="url(#shadow)"/><path d="M100 409 323 315 552 405 328 501Z" fill="#ad855a"/><path d="M100 409 328 501V678L100 569Z" fill="#bd9565"/><path d="M328 501 552 405V568L328 678Z" fill="#956c43"/><path d="m100 409-57-93 209-90 71 89Z" fill="#ddba88"/><path d="m323 315 72-94 219 81-62 103Z" fill="#e6c99c"/><path d="m100 409 228 92-55 88L48 486Z" fill="#e3c293"/><path d="m328 501 224-96 56 79-223 108Z" fill="#cda775"/><path d="m374 585 88-40v24l-88 41Z" fill="#5e472e"/><g stroke="#b38a5a" opacity=".6"><path d="m69 475 210 91m120-22 194-87m-335-213-191 81m339-91 181 66"/></g></svg>