<svg xmlns="http://www.w3.org/2000/svg" width="640" height="800" viewBox="0 0 640 800"><defs><linearGradient id="bg" x2="1" y2="1"><stop stop-color="#ede8df"/><stop offset="1" stop-color="#c9c0b0"/></linearGradient><linearGradient id="paper"><stop stop-color="#fffaf1"/><stop offset="1" stop-color="#c6bcaa"/></linearGradient><linearGradient id="metal"><stop stop-color="#e1e3e0"/><stop offset=".5" stop-color="#7a8584"/><stop offset="1" stop-color="#c1c8c4"/></linearGradient><filter id="shadow"><feGaussianBlur stdDeviation="13"/></filter></defs><rect width="640" height="800" fill="url(#bg)"/><path d="M0 600 640 320V800H0Z" fill="#fff" opacity=".18"/><g stroke="#fff" opacity=".14"><path d="M0 160H640M0 320H640M0 480H640M0 640H640M160 0V800M320 0V800M480 0V800"/></g><ellipse cx="330" cy="639" rx="228" ry="40" fill="#4c453b" opacity=".22" filter="url(#shadow)"/><g transform="rotate(-16 300 440)"><path d="M129 245H455V632H129Z" fill="#a79b87"/><path d="M121 235H447V619H121Z" fill="#faf4e7"/><path d="M135 250H434V455H135Z" fill="#875d69"/><circle cx="357" cy="320" r="73" fill="#d9ad91"/><path d="M135 402 260 289 400 455H135Z" fill="#cc765d"/><path d="M147 490H393M147 514H393M147 538H302" stroke="#b6ada0" stroke-width="6"/><path d="M298 553H489V664H298Z" fill="#d8c9af"/><path d="M290 541H481V652H290Z" fill="#394f4d"/><circle cx="330" cy="581" r="17" fill="#e9d4b0"/><path d="M361 580H448M361 596H430" stroke="#e9d4b0" stroke-width="4"/></g></svg>